# xmcd
#
# Track frame offsets:
#	150
#	12755
#	23205
#	34505
#	48445
#	63025
#	74672
#	83640
#	95442
#	106037
#	116607
#	127872
#	136587
#	147602
#	161902
#	172910
#	185425
#	196550
#	207400
#	217977
#	227275
#	240795
#
# Disc length: 3336 seconds
#
# Revision: 2
# Processed by: cddbd v1.5.2PL0 Copyright (c) Steve Scherf et al.
# Submitted via: EasyCDDAExtractor 12.0.4.1
#
DISCID=130d0616
DTITLE=Various Artist - Dvorana Country 2
DYEAR=1997
DGENRE=Country
TTITLE0=Johnny Horton - North to Alaska
TTITLE1=Johnny Horton - Johnny Reb
TTITLE2=Johnny Horton - The Battle of New Orleans
TTITLE3=Johnny Horton - Comanche (The Brave Horse)
TTITLE4=Johnny Horton - Sink The Bismarck
TTITLE5=Johnny Horton - Lost Highway
TTITLE6=Johnny Horton - I'm a One - Woman Man
TTITLE7=Johnny Horton - When It's Springtime in Alaska
TTITLE8=Johnny Horton - Honky Tonk Man
TTITLE9=Johnny Horton - Out in New Mexico
TTITLE10=Johnny Horton - Jim Bridger Story
TTITLE11=Lester Flatt and Earl Scruggs - Flint Hill Special
TTITLE12=Lester Flatt and Earl Scruggs - Jimmy Brown, The Newsboy
TTITLE13=Lester Flatt and Earl Scruggs - The Last Public Hanging in West Virgini
TTITLE13=a
TTITLE14=Lester Flatt and Earl Scruggs - On The Rock Where Moses Stood
TTITLE15=Lester Flatt and Earl Scruggs - Give Mother My Crown
TTITLE16=Lester Flatt and Earl Scruggs - Wabash Cannonball
TTITLE17=Lester Flatt and Earl Scruggs - I Still Miss Someone
TTITLE18=Lester Flatt and Earl Scruggs - Foggy Mountain Breakdown
TTITLE19=Lester Flatt and Earl Scruggs - Foggy Mountain Special
TTITLE20=Lester Flatt and Earl Scruggs - Earl's Breakdown
TTITLE21=Lester Flatt and Earl Scruggs - Old Mac Donald Had A Farm
EXTD=
EXTT0=
EXTT1=
EXTT2=
EXTT3=
EXTT4=
EXTT5=
EXTT6=
EXTT7=
EXTT8=
EXTT9=
EXTT10=
EXTT11=
EXTT12=
EXTT13=
EXTT14=
EXTT15=
EXTT16=
EXTT17=
EXTT18=
EXTT19=
EXTT20=
EXTT21=
PLAYORDER=
